<?xml version="1.0" encoding="utf-8"?>
<!-- Generator: Adobe Illustrator 25.2.1, SVG Export Plug-In . SVG Version: 6.00 Build 0)  -->
<svg version="1.1" id="Слой_1" xmlns="http://www.w3.org/2000/svg" xmlns:xlink="http://www.w3.org/1999/xlink" x="0px" y="0px"
	 viewBox="0 0 225 158.7" style="enable-background:new 0 0 225 158.7;" xml:space="preserve">
<style type="text/css">
	.st0{fill:#06308B;}
</style>
<g>
	<path class="st0" d="M225,117.8c-2.8,10.2-8.8,17.4-19.6,19.6c-6.1,1.3-8.3-0.5-8.4-6.8c0-7.8,0-15.6,0-23.6c-3.1,0-5.7,0-9.1,0
		c0,1.7,0,3.5,0,5.3c0,13.2,0,26.3,0,39.5c0,5.5-1.3,6.8-6.7,6.8c-32.5,0-65,0.1-97.5-0.1c-2.4,0-5.4-1.6-7-3.4
		c-4.7-5.4-8.7-11.4-13.4-16.8c-1.5-1.7-4.2-3.2-6.5-3.3c-10.5-0.3-21-0.2-31.5-0.1c-4.5,0.1-6.4-1.9-6.4-6.3c0.1-7.1,0-14.3,0-21.6
		c-3.4,0-6.3,0-10,0c0,7.9,0,15.8,0,23.8c0,1.8,0.3,3.7-0.1,5.5c-0.5,2.1-1,5.3-2.4,5.9c-1.7,0.7-4.3-0.8-6.6-1.4c0-32,0-64,0-96
		c1.9-0.9,4.7-3.1,5.6-2.5c1.7,1.1,3.2,3.8,3.2,5.9C9.2,58,9,67.9,9,78c3.3,0,6.4,0,10,0c0-6.8,0.1-13.4,0-20
		c-0.1-4.6,1.7-6.9,6.5-6.6c0.2,0,0.3,0,0.5,0c10.8,2,18.5-1.3,21.9-12.5c1-3.3,3.8-3.7,6.8-3.7c12.7,0.1,25.3,0,38,0
		c1.8,0,3.6,0,5.7,0c0-3.9,0-7.3,0-11.5c-5.9,0-11.8-0.2-17.7,0c-4.8,0.2-6.7-2-6.6-6.6c0.1-3.8,0-7.7,0-11.5c0-3.6,1.6-5.7,5.4-5.8
		c20.8,0,41.6,0,62.5,0c3.4,0,5.2,1.8,5.2,5.3c0,4.3-0.1,8.7,0,13c0.1,3.8-1.8,5.5-5.5,5.5c-6,0-12,0-18.3,0c0,3.8,0,7.3,0,11.6
		c8.7,0,17.5,0,26.3,0c8.2,0,8.1,0.1,10.6,7.9c3.2,10,0.5,8,10.8,8.2c3.7,0.1,7.3,0.1,11,0c4.3-0.2,6,2,6,6.1
		c-0.1,6.7,0,13.3,0,20.4c3,0,5.7,0,9.1,0c0-7.7,0-15.5,0-23.2c0-6.6,1.6-8,8.1-7c9.4,1.5,15.5,7.1,18.7,15.9
		c0.4,1.1,0.8,2.1,1.1,3.2C225,83.8,225,100.8,225,117.8z M167.3,59.6c-10.8,3.4-13.4-3.2-14.7-11.1c-0.6-3.7-2.5-4.6-6.1-4.6
		C119,44,91.5,44.2,64,43.7c-6.7-0.1-10.8,1.6-13.2,8c-1.7,4.5-3.6,9.7-10.4,8.5c0,22.1,0,43.7,0,65.7c6.9,0,13.5-0.3,20.1,0.2
		c2.6,0.2,5.7,1.8,7.4,3.7c4.7,5.2,8.9,10.8,12.9,16.5c1.8,2.6,3.8,3.6,7,3.5c25-0.1,50-0.1,75-0.1c1.5,0,2.9-0.2,4.5-0.2
		C167.3,119.7,167.3,90.2,167.3,59.6z M206.2,128.1c6.1-2.8,9.6-6.8,9.7-12.9c0.2-15.1,0.2-30.3,0-45.4c0-6-3.5-10.3-9.7-12.5
		C206.2,80.7,206.2,104.1,206.2,128.1z M138.1,9.2c-18.4,0-36.6,0-54.8,0c0,2,0,3.6,0,5.3c18.4,0,36.6,0,54.8,0
		C138.1,12.5,138.1,10.9,138.1,9.2z M178.3,150.2c0-30.4,0-60.2,0-91C175.3,63.7,175.5,147,178.3,150.2z M28.4,125.7
		c0.4,0.1,0.7,0.3,1.1,0.4c0.6-1,1.6-1.9,1.6-2.9c0.1-20.1,0.1-40.2,0-60.3c0-1-1-2-1.5-3c-0.4,0.1-0.8,0.3-1.2,0.4
		C28.4,82.1,28.4,103.9,28.4,125.7z M18.7,87.3c-3.3,0-6.3,0-9.5,0c0,3.6,0,6.8,0,10.2c3.3,0,6.3,0,9.5,0
		C18.7,94,18.7,90.7,18.7,87.3z M188.1,97.5c3.1,0,5.8,0,8.6,0c0-3.6,0-6.8,0-10.2c-3,0-5.7,0-8.6,0
		C188.1,90.8,188.1,93.9,188.1,97.5z M107.5,34.9c2,0,4.1,0,6.2,0c0-3.7,0-7.3,0-10.7c-2.2,0-4.1,0-6.2,0
		C107.5,27.8,107.5,31.1,107.5,34.9z"/>
</g>
</svg>
