<?xml version="1.0" encoding="utf-8"?>
<!-- Generator: Adobe Illustrator 25.2.1, SVG Export Plug-In . SVG Version: 6.00 Build 0)  -->
<svg version="1.1" id="Слой_1" xmlns="http://www.w3.org/2000/svg" xmlns:xlink="http://www.w3.org/1999/xlink" x="0px" y="0px"
	 viewBox="0 0 159.8 50.8" style="enable-background:new 0 0 159.8 50.8;" xml:space="preserve">
<style type="text/css">
	.st0{fill:#2197D5;}
	.st1{fill:#243878;}
</style>
<g>
	<g>
		<path class="st0" d="M50.7,12.3v34c0,2.5-2,4.5-4.5,4.5h-34c-2.5,0-4.5-2-4.5-4.5V26.8h3.5c0,1.7,1.4,3.1,3.1,3.1
			c1.7,0,3.1-1.4,3.1-3.1h8.1c0,1.7,1.4,3.1,3.1,3.1c1.7,0,3.1-1.4,3.1-3.1h4v-4c0-1.6-1.1-2.9-2.7-3.2l-2.8-0.5c0-3.3-2.7-6-6-6
			h-5.7c-3.3,0-6,2.7-6,6l-2.8,0.5c-0.9,0.2-1.7,0.7-2.2,1.5v-8.8c0-2.5,2-4.5,4.5-4.5h34C48.7,7.8,50.7,9.8,50.7,12.3z"/>
		<path class="st1" d="M0,4.5v34C0,41,2,43,4.5,43h34c2.5,0,4.5-2,4.5-4.5v-34C43,2,41,0,38.5,0h-34C2,0,0,2,0,4.5z M35.8,26.8h-4
			c0,1.7-1.4,3.1-3.1,3.1c-1.7,0-3.1-1.4-3.1-3.1h-8.1c0,1.7-1.4,3.1-3.1,3.1c-1.7,0-3.1-1.4-3.1-3.1h-4v-4c0-0.6,0.2-1.2,0.5-1.7
			c0.5-0.7,1.2-1.3,2.2-1.5l2.8-0.5c0-3.3,2.7-6,6-6h5.7c3.3,0,6,2.7,6,6l2.8,0.5c1.5,0.3,2.7,1.6,2.7,3.2V26.8z"/>
	</g>
	<g>
		<path class="st1" d="M75.4,7.9c0.5,0.1,0.7,0.3,0.7,0.8v2.6c0,0.3-0.1,0.4-0.4,0.4h-5.7c-1.6,0-2.6,0.4-3.1,1.3
			c-0.5,0.9-0.7,2.5-0.7,5s0.2,4.2,0.7,5.1c0.5,0.9,1.5,1.3,3.1,1.3h5.7c0.3,0,0.4,0.1,0.4,0.4v2.6c0,0.5-0.2,0.7-0.7,0.8
			c-1.3,0.3-3.1,0.5-5.4,0.5c-3.6,0-5.7-0.6-7.1-2.3c-1.4-1.7-1.8-4.2-1.8-8.4c0-4.2,0.6-7,1.8-8.4c1.2-1.5,3.6-2.2,7.1-2.2
			C72.1,7.4,73.9,7.6,75.4,7.9z"/>
		<path class="st1" d="M91.1,18.1v9.2c0,0.5-0.2,0.8-0.6,0.9c-1.9,0.4-3.9,0.6-6.2,0.6c-1,0-1.8,0-2.4-0.1c-0.6,0-1.2-0.1-1.8-0.3
			c-1.7-0.5-2.4-1.7-2.5-4.4c0-1.8,0.5-3,1.4-3.6c0.9-0.6,2.4-0.9,4.5-0.9l3,0v-0.5c0-1-0.7-1.6-2-1.6h-5.3c-0.2,0-0.3-0.1-0.3-0.4
			v-2.7c0-0.2,0.1-0.4,0.3-0.4c1.5-0.3,3.2-0.5,5.3-0.5C90.3,13.3,91.1,15.2,91.1,18.1z M86.4,22.2h-2.5c-1.3,0-1.7,0.4-1.7,1.4
			c0,1.1,0.4,1.4,1.9,1.4c0.9,0,1.7-0.1,2.3-0.2V22.2z"/>
		<path class="st1" d="M102.9,13.6c0.3,0.1,0.5,0.2,0.5,0.6v2.7c0,0.3-0.2,0.4-0.5,0.4h-2.7c-1.2,0-1.6,0.2-1.6,1.3v9.6
			c0,0.3-0.1,0.4-0.4,0.4h-3.9c-0.3,0-0.4-0.1-0.4-0.4V17.3c0-1.6,0.4-2.7,1.3-3.3c0.9-0.6,2.2-0.8,3.8-0.8
			C100.6,13.2,101.9,13.3,102.9,13.6z"/>
		<path class="st0" d="M119.7,9c1.2,1,1.7,2.8,1.7,5.5c0,2.6-0.6,4.4-1.7,5.3c-1.1,0.9-3.1,1.3-6.1,1.3h-3.3v7.1
			c0,0.3-0.1,0.4-0.4,0.4h-4.2c-0.3,0-0.4-0.1-0.4-0.4V8.1c0-0.2,0.1-0.3,0.4-0.4c2.6-0.2,5.3-0.3,7.9-0.3
			C116.6,7.4,118.6,7.9,119.7,9z M110.4,11.7v5.7h2.8c1.3,0,2.2-0.2,2.6-0.5c0.5-0.4,0.7-1.1,0.7-2.2c0-2.2-0.7-2.9-3.3-2.9H110.4z"
			/>
		<path class="st0" d="M135.7,18.1v9.2c0,0.5-0.2,0.8-0.6,0.9c-1.9,0.4-3.9,0.6-6.2,0.6c-1,0-1.8,0-2.4-0.1c-0.6,0-1.2-0.1-1.8-0.3
			c-1.7-0.5-2.4-1.7-2.5-4.4c0-1.8,0.5-3,1.4-3.6c0.9-0.6,2.4-0.9,4.5-0.9l3,0v-0.5c0-1-0.7-1.6-2-1.6h-5.3c-0.2,0-0.3-0.1-0.3-0.4
			v-2.7c0-0.2,0.1-0.4,0.3-0.4c1.5-0.3,3.2-0.5,5.3-0.5C134.8,13.3,135.7,15.2,135.7,18.1z M131,22.2h-2.5c-1.3,0-1.7,0.4-1.7,1.4
			c0,1.1,0.4,1.4,1.9,1.4c0.9,0,1.7-0.1,2.3-0.2V22.2z"/>
		<path class="st0" d="M151.8,13.4c0.2,0,0.4,0.1,0.4,0.4v14c0,0.3-0.1,0.4-0.4,0.5c-1.7,0.3-4,0.5-6.9,0.5c-2.8,0-4.2-0.3-5.3-1.3
			c-1-1-1.3-2.5-1.3-5.3v-8.4c0-0.3,0.1-0.4,0.4-0.4h3.9c0.3,0,0.4,0.1,0.4,0.4v7c-0.1,1.9,0.1,2.8,0.4,3.4c0.4,0.5,1,0.6,2.2,0.6
			h1.8V13.8c0-0.3,0.1-0.4,0.4-0.4H151.8z"/>
		<path class="st0" d="M159.4,7.6c0.3,0,0.4,0.1,0.4,0.4v20.2c0,0.3-0.1,0.4-0.4,0.4h-3.9c-0.3,0-0.4-0.1-0.4-0.4V8
			c0-0.3,0.1-0.4,0.4-0.4H159.4z"/>
		<g>
			<path class="st1" d="M65.5,36.5c0.2,0.1,0.3,0.4,0.5,0.9l1.6,5.9c0,0.1,0,0.1-0.1,0.1h-1.4c-0.1,0-0.1,0-0.1-0.1l-0.5-1.8h-2.3
				l-0.5,1.8c0,0.1-0.1,0.1-0.1,0.1h-1.4c-0.1,0-0.1,0-0.1-0.1l1.6-5.9c0.1-0.5,0.3-0.8,0.5-0.9c0.2-0.1,0.6-0.2,1.2-0.2
				C64.9,36.3,65.3,36.3,65.5,36.5z M64.2,37.8l-0.6,2.2h1.5l-0.6-2.2c0-0.1-0.1-0.1-0.2-0.1C64.2,37.7,64.2,37.7,64.2,37.8z"/>
			<path class="st1" d="M77,36.7c0.4,0.3,0.6,0.8,0.6,1.5c0,1-0.3,1.5-1.1,1.6v0c0.9,0.1,1.3,0.5,1.3,1.6c0,0.7-0.2,1.2-0.6,1.5
				c-0.4,0.3-1,0.4-2,0.4c-1,0-1.9,0-2.8-0.1c-0.1,0-0.1,0-0.1-0.1v-6.7c0-0.1,0-0.1,0.1-0.1c0.9-0.1,1.8-0.1,2.6-0.1
				C75.9,36.3,76.6,36.4,77,36.7z M73.9,37.7v1.5h0.8c0.9,0,1.1-0.2,1.1-0.8c0-0.6-0.3-0.8-1-0.8H73.9z M73.9,40.4V42H75
				c0.7,0,1-0.2,1-0.7c0-0.6-0.3-0.8-1-0.8H73.9z"/>
			<path class="st1" d="M87.3,36.3c0.1,0,0.1,0,0.1,0.1v1.2c0,0.1,0,0.1-0.1,0.1h-1.8v5.5c0,0.1,0,0.1-0.1,0.1H84
				c-0.1,0-0.1,0-0.1-0.1v-5.5H82c-0.1,0-0.1,0-0.1-0.1v-1.2c0-0.1,0-0.1,0.1-0.1H87.3z"/>
			<path class="st1" d="M97,37c0.4,0.5,0.6,1.4,0.6,2.8c0,1.4-0.2,2.2-0.6,2.8c-0.5,0.6-1.2,0.8-2.4,0.8c-1.2,0-2-0.3-2.4-0.7
				c-0.4-0.5-0.6-1.4-0.6-2.8c0-1.4,0.2-2.2,0.6-2.8c0.5-0.6,1.2-0.8,2.4-0.8C95.8,36.3,96.6,36.5,97,37z M93.6,38.2
				c-0.2,0.3-0.3,0.9-0.3,1.7c0,0.8,0.1,1.4,0.3,1.7c0.2,0.3,0.5,0.4,1.1,0.4s0.9-0.1,1.1-0.4c0.2-0.3,0.3-0.9,0.3-1.7
				c0-0.8-0.1-1.4-0.3-1.7c-0.2-0.3-0.5-0.5-1.1-0.5S93.8,37.9,93.6,38.2z"/>
			<path class="st1" d="M110,36.3c0.1,0,0.1,0,0.1,0.1v6.8c0,0.1,0,0.2-0.1,0.2h-1.4c-0.1,0-0.1-0.1-0.1-0.2v-6.8
				c0-0.1,0-0.1,0.1-0.1H110z"/>
			<path class="st1" d="M119.1,36.5c0.7,0.2,1.1,0.7,1.1,1.5v0.5c0,0.8-0.3,1.2-0.9,1.3c0.6,0.1,0.9,0.6,0.9,1.3v0.5
				c0,0.6-0.2,1-0.5,1.3c-0.5,0.4-1.2,0.5-2.2,0.5c-0.9,0-1.6-0.1-2.1-0.2c-0.2,0-0.2-0.1-0.2-0.3v-0.9c0-0.1,0-0.1,0.1-0.1h2
				c0.5,0,0.8,0,1-0.1c0.2-0.1,0.2-0.3,0.2-0.5v-0.1c0-0.5-0.2-0.7-1.1-0.7h-1.7c-0.1,0-0.1,0-0.1-0.1v-1c0-0.1,0-0.1,0.1-0.1h1.7
				c0.4,0,0.7,0,0.9-0.1c0.1-0.1,0.2-0.3,0.2-0.6v-0.1c0-0.3-0.1-0.4-0.2-0.5s-0.5-0.1-1-0.1h-2c-0.1,0-0.1,0-0.1-0.1v-0.9
				c0-0.2,0.1-0.2,0.2-0.3c0.5-0.1,1.2-0.2,2.1-0.2C118.2,36.3,118.6,36.3,119.1,36.5z"/>
			<path class="st1" d="M135.6,36.4c0.2,0,0.2,0.1,0.2,0.3v0.9c0,0.1,0,0.1-0.1,0.1h-1.9c-0.5,0-0.9,0.1-1,0.4
				c-0.2,0.3-0.2,0.8-0.2,1.7s0.1,1.4,0.2,1.7c0.2,0.3,0.5,0.4,1,0.4h1.9c0.1,0,0.1,0,0.1,0.1V43c0,0.2-0.1,0.2-0.2,0.3
				c-0.4,0.1-1.1,0.2-1.8,0.2c-1.2,0-1.9-0.2-2.4-0.8c-0.5-0.6-0.6-1.4-0.6-2.8c0-1.4,0.2-2.3,0.6-2.8s1.2-0.7,2.4-0.7
				C134.5,36.3,135.2,36.3,135.6,36.4z"/>
			<path class="st1" d="M148.4,36.3c0.1,0,0.1,0,0.1,0.1v6.8c0,0.1,0,0.1-0.1,0.1h-7.5c-0.1,0-0.1,0-0.1-0.1v-6.8
				c0-0.1,0-0.1,0.1-0.1h1.4c0.1,0,0.1,0,0.1,0.1v5.5h1.4v-5.5c0-0.1,0-0.1,0.1-0.1h1.4c0.1,0,0.1,0,0.1,0.1v5.5h1.4v-5.5
				c0-0.1,0-0.1,0.1-0.1H148.4z"/>
			<path class="st1" d="M157.7,36.5c0.2,0.1,0.3,0.4,0.5,0.9l1.6,5.9c0,0.1,0,0.1-0.1,0.1h-1.4c-0.1,0-0.1,0-0.1-0.1l-0.5-1.8h-2.3
				l-0.5,1.8c0,0.1-0.1,0.1-0.1,0.1h-1.4c-0.1,0-0.1,0-0.1-0.1l1.6-5.9c0.1-0.5,0.3-0.8,0.5-0.9c0.2-0.1,0.6-0.2,1.2-0.2
				C157.1,36.3,157.5,36.3,157.7,36.5z M156.3,37.8l-0.6,2.2h1.5l-0.6-2.2c0-0.1-0.1-0.1-0.2-0.1C156.4,37.7,156.4,37.7,156.3,37.8z
				"/>
		</g>
	</g>
</g>
</svg>
